<svg id="prefix__Layer_1" data-name="Layer 1" xmlns="http://www.w3.org/2000/svg" viewBox="0 0 1080 484.6"><defs><style>.prefix__cls-1{fill:#fff;stroke-width:0}</style></defs><path class="prefix__cls-1" d="M66.4 140.1h65.7c12.6 0 22.5 3.1 29.7 9.4 7.1 6.3 10.7 15.3 10.7 27.2s-1.4 11.5-4.2 16.4c-2.8 4.9-6.6 8.7-11.5 11.4 6.6 2.4 11.6 6.1 14.9 11 3.3 4.9 5 11.3 5 19.2s-1.8 15-5.5 21c-3.6 5.9-8.6 10.5-14.9 13.6-6.3 3.1-13.3 4.7-21 4.7H66.4V140.1zm60.1 54.4c5.1 0 9.1-1.3 12.1-3.8 2.9-2.6 4.4-6.6 4.4-12.3s-1.4-10.3-4.3-12.6c-2.9-2.3-7.2-3.4-13.1-3.4H95.5v32.2h31zm1.7 57.3c6.3 0 11-1.2 14.3-3.7 3.3-2.5 4.9-6.9 4.9-13.1s-1.7-11-5.1-13.8c-3.4-2.8-8.4-4.2-15-4.2H95.5v34.9h32.7zM193 140.1h29.1V274H193V140.1zM272.8 268.3c-11-5.7-19.5-13.8-25.5-24.2-6-10.5-9-22.8-9-37s3-26.5 9-37.1c6-10.5 14.5-18.6 25.5-24.3 11-5.7 23.6-8.5 37.9-8.5s18.3 1 25.8 3 14.3 5.1 20.6 9.3v27.8c-5.6-4.6-12-7.9-19.2-10.1-7.2-2.1-15.4-3.2-24.6-3.2s-16.2 1.8-23.1 5.3c-6.8 3.5-12.2 8.5-16.2 15s-5.9 14.1-5.9 22.8 1.8 16.5 5.5 23.1c3.6 6.6 8.8 11.7 15.4 15.2 6.6 3.6 14.3 5.4 23 5.4s14.8-1.4 20.7-4.2v-25.9h-21.6v-21.4h49.8v64.5c-12.6 8.7-29.3 13-50 13S284 274 273 268.3zM493.8 140.1h28.5L575.7 274H546l-11.5-29.1h-53L470 274h-29.9l53.6-133.9zm33.1 81.6l-19-50.9-19 50.9h37.9zM591.8 140.1h56.3c15.2 0 27.3 4 36.4 12 9.1 8 13.6 19.1 13.6 33.2s-4.5 25.7-13.5 33.5c-9 7.8-21.2 11.7-36.5 11.7h-27.2V274h-29.1V140.1zm52.1 66.1c16.5 0 24.7-7 24.7-20.9s-2.2-13.2-6.6-16.3c-4.4-3.1-10.4-4.6-18.1-4.6h-23v41.7h23zM708.6 140.1h56.3c15.2 0 27.3 4 36.4 12 9.1 8 13.6 19.1 13.6 33.2s-4.5 25.7-13.5 33.5c-9 7.8-21.2 11.7-36.5 11.7h-27.2V274h-29.1V140.1zm52.1 66.1c16.5 0 24.7-7 24.7-20.9s-2.2-13.2-6.6-16.3c-4.4-3.1-10.4-4.6-18.1-4.6h-23v41.7h23zM828.3 140.1h29.1v109.5h61.3v24.3h-90.4V140zM928.3 140.1h92.9v24.3h-63.8v31h46.9v23.4h-46.9v30.8h63.8v24.3h-92.9V140z"/><g><path class="prefix__cls-1" d="M710.3 300.2H58.9v7.3h644.4v68.8h320.3v-76.1H710.3zm49.7 56.3c-1 1.9-2.4 3.5-4.2 4.8-1.8 1.3-4 2.2-6.5 2.8-2.6.6-5.4.9-8.4.9s-5.3-.3-7.9-.8c-2.6-.5-4.7-1.3-6.4-2.2v-7.6c2.4 1.1 4.8 1.8 7.1 2.3 2.3.5 4.7.7 7.1.7s2.8-.1 4.2-.3c1.4-.2 2.6-.6 3.7-1.2s2-1.3 2.6-2.3c.7-1 1-2.2 1-3.6s-.3-2.3-.9-3c-.6-.8-1.4-1.4-2.5-1.9s-2.2-.9-3.5-1.2-2.7-.6-4.1-.9c-1.9-.4-3.7-.9-5.5-1.5-1.7-.6-3.3-1.4-4.6-2.4-1.3-1-2.4-2.3-3.2-3.9-.8-1.6-1.2-3.5-1.2-5.9s.5-4.8 1.4-6.8c.9-1.9 2.1-3.5 3.7-4.8 1.6-1.3 3.4-2.2 5.5-2.8 2.1-.6 4.4-.9 7.1-.9s5.2.3 7.9.8c2.6.5 4.9 1.2 6.8 2v7.7c-2.5-1-5-1.7-7.3-2.2-2.3-.5-4.5-.7-6.6-.7-3 0-5.2.5-6.8 1.6-1.6 1.1-2.4 2.7-2.4 4.8s.3 2.3.8 3.1c.5.8 1.2 1.5 2.1 2 .9.5 1.9.9 3.1 1.3 1.2.3 2.4.6 3.7.9 2.1.4 4.1.9 6 1.5 1.9.6 3.6 1.4 5 2.4s2.6 2.4 3.5 4c.9 1.6 1.3 3.8 1.3 6.3s-.5 4.9-1.5 6.9zm57.6-33.9h-15.8v41.5h-9v-41.5H777v-7.5h40.6v7.5zm63.5 27.3c-1.1 3.1-2.6 5.8-4.7 8-2 2.2-4.5 4-7.5 5.2-3 1.2-6.3 1.9-10.1 1.9s-7.2-.6-10.1-1.9c-3-1.2-5.5-3-7.5-5.2s-3.6-4.9-4.7-8c-1.1-3.1-1.6-6.5-1.6-10.3s.5-7.2 1.6-10.3c1.1-3.1 2.6-5.8 4.7-8 2-2.2 4.5-4 7.5-5.2 3-1.2 6.3-1.9 10.1-1.9s7.2.6 10.1 1.9c3 1.2 5.5 3 7.5 5.2s3.6 4.9 4.7 8c1.1 3.1 1.6 6.5 1.6 10.3s-.5 7.2-1.6 10.3zm55.1 14.2l-13.3-19h-6.2v19h-9v-49h14.9c2.5 0 4.8.1 6.9.4s3.9.7 5.5 1.3c2.9 1.1 5.1 2.7 6.7 4.9 1.6 2.2 2.3 4.9 2.3 8.2s-.9 6.3-2.8 8.7c-1.9 2.4-4.8 4.1-8.8 5.3 0 .1 14.6 20.3 14.6 20.3h-10.8zm67.2 0h-33.1v-49h31.8v7.5h-22.8v12.7h19.6v7.5h-19.6v13.8h24.1v7.5z"/><path class="prefix__cls-1" d="M869.2 326.1c-1.3-1.5-2.8-2.6-4.6-3.3-1.8-.7-3.7-1.1-5.9-1.1s-4.1.4-5.9 1.1c-1.8.7-3.3 1.8-4.6 3.3-1.3 1.5-2.3 3.4-3 5.6-.7 2.2-1.1 4.8-1.1 7.8s.4 5.6 1.1 7.8c.7 2.2 1.7 4.1 3 5.6s2.8 2.6 4.6 3.3c1.8.7 3.7 1.1 5.9 1.1s4.1-.4 5.9-1.1c1.8-.7 3.3-1.9 4.6-3.3 1.3-1.5 2.3-3.3 3-5.6.7-2.2 1.1-4.8 1.1-7.8s-.4-5.6-1.1-7.8c-.7-2.2-1.7-4.1-3-5.6zM933.6 333.6c.7-1.2 1-2.5 1-4.1s-.3-2.5-.8-3.5c-.6-1-1.5-1.8-2.8-2.4-.9-.4-1.9-.7-3.2-.9-1.3-.2-2.9-.3-4.8-.3h-6.4v15h4.4c2.1 0 3.8 0 5.2-.3 1.4-.2 2.6-.5 3.6-.8 1.8-.7 3.1-1.6 3.8-2.8z"/></g></svg>