<?xml version="1.0" encoding="UTF-8"?>
<svg id="Layer_1" data-name="Layer 1" xmlns="http://www.w3.org/2000/svg" viewBox="0 0 100 100">
  <defs>
    <style>
      .cls-1 {
        fill: #fff;
        stroke: #4c4c4c;
        stroke-miterlimit: 10;
      }

      .cls-2 {
        fill: #021584;
        stroke-width: 0px;
      }
    </style>
  </defs>
  <circle class="cls-1" cx="50.96" cy="51.12" r="46.84"/>
  <g>
    <rect class="cls-2" x="21.58" y="59.31" width="17.02" height="1.44"/>
    <path class="cls-2" d="m56.55,65.98l1.14,1.94s1.03,1.68,2.91,2.18c1.88.5,2.11,1.94,2.01,1.94s-5.74,1-7.51.8l-.62.03.35-4.94,1.73-1.94Z"/>
    <path class="cls-2" d="m42.57,49.82l-1.97,2.04s.17,4.33,4.95,4.38c4.77.05,9.27-.23,9.27-.23v11.9h2.87l1.08-12.19c.14-1.62-.71-3.17-2.16-3.92h0c-.29-.15-.6-.26-.91-.34l-8.55-2-4.57.35Z"/>
    <path class="cls-2" d="m46.45,34.53l-1.8.08s-3.29,5.59-3.81,10.57c-.52,4.98-.24,6.68-.24,6.68,0,0,3.26.31,6.67,0,3.4-.31,3.39-1.57,3.39-1.57,0,0-.09-6.22-.16-8.21-.07-1.99-1.35-5.61-1.35-5.61l-2.7-1.95Z"/>
    <polygon class="cls-2" points="47.8 31.51 46.07 31.97 45.36 34.34 47.9 35.5 48.78 35.35 49.01 31.92 47.8 31.51"/>
    <path class="cls-2" d="m55.84,28.5l-1.56-3.05h0c-.86-1.99-2.83-3.38-5.14-3.38-3.09,0-5.59,2.5-5.59,5.59s2.5,5.59,5.59,5.59c2.59,0,4.76-1.76,5.4-4.15l1.3-.61Z"/>
    <polygon class="cls-2" points="51.06 22.14 54.1 23.49 58.14 24.24 46.13 28.02 47.46 23.68 51.06 22.14"/>
    <g>
      <path class="cls-2" d="m34.15,68.07c-3.96,0-7.17,3.21-7.17,7.17s3.21,7.17,7.17,7.17,7.17-3.21,7.17-7.17-3.21-7.17-7.17-7.17Zm0,11.56c-2.43,0-4.39-1.97-4.39-4.39s1.97-4.39,4.39-4.39,4.39,1.97,4.39,4.39-1.97,4.39-4.39,4.39Z"/>
      <path class="cls-2" d="m37.9,75.24c0,2.07-1.68,3.75-3.75,3.75s-3.75-1.68-3.75-3.75,1.68-3.75,3.75-3.75,3.75,1.68,3.75,3.75Z"/>
    </g>
    <g>
      <path class="cls-2" d="m73.94,68.07c-3.96,0-7.17,3.21-7.17,7.17s3.21,7.17,7.17,7.17,7.17-3.21,7.17-7.17-3.21-7.17-7.17-7.17Zm0,11.56c-2.43,0-4.39-1.97-4.39-4.39s1.97-4.39,4.39-4.39,4.39,1.97,4.39,4.39-1.97,4.39-4.39,4.39Z"/>
      <path class="cls-2" d="m77.68,75.24c0,2.07-1.68,3.75-3.75,3.75s-3.75-1.68-3.75-3.75,1.68-3.75,3.75-3.75,3.75,1.68,3.75,3.75Z"/>
    </g>
    <path class="cls-2" d="m38.61,60.42v-2.5c0-.92.75-1.67,1.67-1.67h9.54c.98,0,1.88.56,2.31,1.45h0c.31.64.19,1.41-.3,1.92l-1.92,2-11.44-1.25"/>
    <path class="cls-2" d="m67.3,63.19l4.06.27s3.71-.24,6.73,2.06c0,0-3.64,4.77-6.23,5.4-2.58.62-5.14,3.27-6.34,3.29-1.2.01-2.77-1.19-2.72-1.33s4.5-9.69,4.5-9.69Z"/>
    <path class="cls-2" d="m64.51,53.64l.21-1.26.18-.73,1.41-.25-.62-4.5-2.97.53c-.65.11-1.18.57-1.4,1.19l-.18.51c-.56,1.58-.44,3.33.33,4.82.34.66.63,1.2.67,1.2.09,0,2.38-1.52,2.38-1.52Z"/>
    <path class="cls-2" d="m64.71,52.38l2.18,5.33,2.73.9,1.73,4.84s-4.32,1.25-5.43,5.71c-.16.64-.34,1.2-.55,1.69-.84,2.05-2.87,3.36-5.09,3.35l-39.48-.23s3.22-13.94,15.46-14.56c12.25-.62,15.57.83,15.08,1.59-.48.76-5.4,6.92-2.98,9.55,2.42,2.63,11.08,2,12.11,1.56,4.05-1.73,3.32-6.85,2.77-9.1-.55-2.25-1.79-3.58-2.04-5.36-.35-2.49.76-4.88,3.49-5.26Z"/>
    <polygon class="cls-2" points="64.85 46.75 65.64 51.87 66.67 51.73 67.07 46.26 64.85 46.75"/>
    <path class="cls-2" d="m47.85,29.28l-.26-.92c-.3-1.07.24-2.2,1.26-2.64,1.51-.65,3.67-1.58,5.25-2.23-1.17-2.32-3.66-3.86-6.48-3.64-3.21.25-5.83,2.84-6.11,6.04-.22,2.48.92,4.71,2.76,6.02.94.67,2.25.47,2.98-.43l.17-.2c.46-.56.62-1.31.42-2.01Z"/>
    <circle class="cls-2" cx="52.72" cy="27.14" r=".59"/>
    <polygon class="cls-2" points="45.2 33.25 49.89 34.73 49.15 36.48 44.65 34.61 45.2 33.25"/>
    <path class="cls-2" d="m57.4,70.22c0,.54-.43.97-.97.97s-.97-.43-.97-.97.43-.97.97-.97.97.43.97.97Z"/>
    <path class="cls-2" d="m42.54,74.1s4.67-8.74-.35-11.34-16.26,6.29-19.1,11.22l19.44.11Z"/>
    <path class="cls-2" d="m61.51,50.83c0,.47-.38.85-.85.85s-.85-.38-.85-.85.38-.85.85-.85.85.38.85.85Z"/>
    <path class="cls-2" d="m56.75,47.89l2.63.54s1.16.22,1.93.19,1.13.39,1.44,1.01-.02,2.21-.67,2.23c-.66.02-1.19-.16-1.04-.31.16-.16.31-.97-.21-1.14s-2.44.46-2.44.46l-1.64-2.99Z"/>
    <path class="cls-2" d="m48.64,38.63l2.85,5.33c.2.37.5.67.87.86l7.02,3.61s-.95,2.51-.99,2.44c-.04-.06-5.6-1.64-7.66-2.23-.49-.14-.91-.45-1.18-.88l-3.93-6.29c-.17-.28-.27-.6-.27-.93v-1.09c0-1.09.99-1.91,2.06-1.72h0c.52.1.97.42,1.22.89Z"/>
    <path class="cls-2" d="m27.1,44.29h6.03c2.21,0,4,1.79,4,4v11.01h-14.04v-11.01c0-2.21,1.79-4,4-4Z"/>
    <path class="cls-2" d="m34.7,44.29h-9.17c-1.34,0-2.44,1.09-2.44,2.44v1.16h14.04v-1.16c0-1.34-1.09-2.44-2.44-2.44Z"/>
  </g>
</svg>