<?xml version="1.0" encoding="UTF-8"?>
<svg id="Layer_1" data-name="Layer 1" xmlns="http://www.w3.org/2000/svg" viewBox="0 0 100 100">
  <defs>
    <style>
      .cls-1 {
        fill: #fff;
        stroke: #4c4c4c;
        stroke-miterlimit: 10;
      }

      .cls-2 {
        fill-rule: evenodd;
      }

      .cls-2, .cls-3 {
        fill: #021584;
        stroke-width: 0px;
      }
    </style>
  </defs>
  <circle class="cls-1" cx="50.42" cy="50.12" r="46.84"/>
  <g>
    <path class="cls-3" d="m47.84,18.97h-27.78c-2.31,0-4.19,1.91-4.19,4.22v53.86c0,2.34,1.88,4.22,4.19,4.22h27.78c2.31,0,4.22-1.88,4.22-4.19V23.19c0-2.31-1.91-4.22-4.22-4.22h0Zm-18.34,3.04h8.9c.27,0,.51.22.51.51,0,.27-.24.51-.51.51h-8.9c-.27,0-.48-.24-.48-.51,0-.3.21-.51.48-.51h0Zm4.46,57.16h0c-1.18,0-2.12-.94-2.12-2.12s.94-2.1,2.12-2.1,2.1.94,2.1,2.1-.94,2.12-2.1,2.12h0Zm15.17-5.7h-30.33V25.64h30.33v47.83Z"/>
    <path class="cls-3" d="m83.86,73.88l-8.49-7.22c-.88-.79-1.82-1.15-2.57-1.12,2-2.35,3.21-5.39,3.21-8.72,0-7.42-6.02-13.44-13.44-13.44s-13.44,6.02-13.44,13.44,6.02,13.44,13.44,13.44c3.33,0,6.37-1.21,8.72-3.21-.03.76.33,1.7,1.12,2.57l7.22,8.49c1.24,1.37,3.26,1.49,4.49.26,1.23-1.23,1.12-3.25-.26-4.49Zm-21.29-8.1c-4.95,0-8.96-4.01-8.96-8.96s4.01-8.96,8.96-8.96,8.96,4.01,8.96,8.96-4.01,8.96-8.96,8.96Z"/>
    <path class="cls-2" d="m42.16,55.31c.03.31.17.52-.06.74l-2.64,2.63c-.13.14-.27.24-.47.34-.19.09-.38.15-.56.18-.02,0-.05,0-.13.01-.06.01-.15.01-.25.01-.25,0-.66-.04-1.22-.13-.57-.09-1.26-.31-2.07-.64-.81-.34-1.74-.84-2.77-1.52-1.03-.68-2.14-1.6-3.3-2.78-.93-.92-1.7-1.79-2.31-2.63-.61-.83-1.1-1.6-1.47-2.31-.38-.72-.65-1.36-.84-1.93-.18-.58-.31-1.08-.37-1.5-.07-.41-.09-.74-.08-.98.01-.24.02-.37.02-.4.02-.18.08-.37.18-.56.09-.2.2-.35.34-.47,6.3-6.3,6.66,2.27,5.97,2.96l-.98.98s-.05.06-.06.13c-.02.05-.03.11-.03.15.05.27.17.6.36.95.16.33.4.71.73,1.17.34.45.81.98,1.41,1.58.6.6,1.13,1.08,1.59,1.41.46.34.85.59,1.16.75.32.16.56.25.72.28l.25.05s.06-.01.13-.03c.06-.02.11-.04.13-.06,2.57-3.78,6.38-.23,6.64,1.62h0Zm-4.8-15.14c-2.58,0-4.67,1.66-4.67,3.7,0,1.21.75,2.29,1.89,2.96-.11.61-.46,1.34-.97,1.84,1.22-.09,2.3-.44,2.99-1.16.25.03.5.05.76.05,2.58,0,4.67-1.66,4.67-3.69s-2.09-3.7-4.67-3.7h0Zm-2.19,4.43c-.4,0-.73-.33-.73-.73s.33-.74.73-.74.73.33.73.74-.33.73-.73.73h0Zm2.19,0c-.4,0-.73-.33-.73-.73s.33-.74.73-.74.73.33.73.74-.33.73-.73.73h0Zm2.18,0c-.4,0-.73-.33-.73-.73s.33-.74.73-.74.74.33.74.74-.33.73-.74.73h0Z"/>
  </g>
</svg>