<?xml version="1.0" encoding="UTF-8"?>
<svg id="Layer_1" data-name="Layer 1" xmlns="http://www.w3.org/2000/svg" viewBox="0 0 100 100">
  <defs>
    <style>
      .cls-1 {
        fill: #fff;
        stroke: #4c4c4c;
        stroke-miterlimit: 10;
      }

      .cls-2 {
        fill-rule: evenodd;
      }

      .cls-2, .cls-3 {
        fill: #021584;
        stroke-width: 0px;
      }
    </style>
  </defs>
  <circle class="cls-1" cx="50.64" cy="50.67" r="46.84"/>
  <g>
    <path class="cls-2" d="m49.14,25.12l-2.17-1.29v-2.51c0-1.29-1.07-2.32-2.36-2.32l-2.51-.03-1.26-2.17c-.66-1.13-2.1-1.51-3.2-.85l-2.2,1.22-2.17-1.22c-1.13-.66-2.58-.28-3.2.85l-1.29,2.17-2.51.03c-1.29,0-2.33,1.04-2.36,2.32v2.51l-2.17,1.29c-1.13.66-1.51,2.07-.88,3.2l1.26,2.17-1.26,2.2c-.63,1.13-.25,2.54.88,3.2l2.17,1.26v2.51c.03,1.29,1.07,2.36,2.36,2.36h2.51l1.26,2.2c.66,1.1,2.11,1.48,3.2.85l2.2-1.26,2.2,1.26c.34.22.75.31,1.16.31.82,0,1.6-.41,2.04-1.16l1.26-2.2h2.51c1.29,0,2.36-1.04,2.36-2.36v-2.51l2.17-1.26c1.13-.66,1.51-2.07.88-3.2l-1.26-2.2,1.26-2.17c.63-1.13.25-2.58-.88-3.2h0Zm-14.89,5.84h0l-1.82-1.67c-.19-.19-.47-.31-.75-.31-.31,0-.57.13-.79.31l-.57.5c-.41.41-.41,1.04,0,1.45l3.17,2.92c.22.19.5.31.79.31.31,0,.6-.12.79-.31l5.5-5.44c.41-.38.41-1.04-.03-1.41l-.6-.5c-.22-.19-.47-.28-.75-.28s-.56.13-.75.31l-4.18,4.12Zm1.2-8.51c4.46,0,8.07,3.61,8.07,8.04s-3.61,8.07-8.07,8.07-8.04-3.61-8.04-8.07,3.58-8.04,8.04-8.04h0Z"/>
    <path class="cls-3" d="m62.47,35.02h-18.78c-1.88,0-3.42,1.54-3.42,3.44v43.84c0,1.88,1.54,3.42,3.42,3.42h22.62c1.88,0,3.42-1.52,3.42-3.42v-33.09c-.11-.13-.17-.25-.25-.4l-1.38-2.73c-.25.15-.5.29-.75.44v32.86h-24.7v-38.92h14.7c1.46-1.98,3.25-3.75,5.21-5.27l-.08-.17Zm-4.17,20.2c.23-.1.4-.35.38-.63-.02-.19-.25-4.86,5.69-8.82,1.23-.81,2.77-1.69,4.69-2.69l2.4,4.73c.1.21.33.35.56.38.25-.02.48-.12.58-.35l8.01-14.34c.13-.19.13-.42.02-.63-.11-.19-.29-.33-.52-.35l-16.3-2.02h-.1c-.21.02-.4.12-.5.29-.14.19-.19.44-.06.67l2.23,4.4c-2.46,1.69-12.8,9.51-7.94,19.1.15.27.46.42.77.33.04-.02.08-.04.1-.06h0Zm-6.92-17.72h7.23c.23,0,.42.19.42.42s-.19.42-.42.42h-7.23c-.23,0-.42-.19-.42-.42s.19-.42.42-.42h0Zm3.61,46.51h0c-.94,0-1.71-.75-1.71-1.71s.77-1.71,1.71-1.71,1.73.77,1.73,1.71-.77,1.71-1.73,1.71h0Z"/>
    <path class="cls-3" d="m63.73,63.63c0-1.92-1.64-3.49-3.66-3.49-.13,0-.27,0-.4.02,0-.11.01-.21.01-.31,0-2.51-2.04-4.55-4.55-4.55-1.15,0-2.25.43-3.09,1.21-.84.78-1.35,1.83-1.44,2.96-.17-.02-.34-.03-.5-.03-2.11,0-3.83,1.72-3.83,3.84s1.71,3.82,3.81,3.83h3.83c.1,0,.19-.04.25-.11.07-.07.1-.16.1-.26,0,0,0,0,0,0v-2.86c0-.19-.16-.35-.35-.35h-.49l1.53-1.88s.07-.05.11,0l1.53,1.88h-.49c-.19,0-.35.16-.35.35v2.86s0,.02,0,.02c0,.19.16.35.35.35h4c2.01-.01,3.64-1.58,3.64-3.49Zm-3.65,2.79h-3.64s0-2.18,0-2.18h.33c.41,0,.56-.23.61-.33.05-.09.12-.35-.12-.65l-1.66-2.05c-.15-.19-.37-.29-.6-.29s-.45.11-.6.29l-1.66,2.05c-.24.3-.16.55-.12.65.05.1.2.33.61.33h.33v2.18h-3.47c-1.72-.01-3.12-1.42-3.12-3.13s1.41-3.13,3.13-3.13c.14,0,.28,0,.42.03l.36.05c.1.01.19-.01.27-.08.07-.06.12-.15.13-.24l.03-.36c.08-.96.51-1.85,1.22-2.51.71-.66,1.64-1.03,2.61-1.03,2.12,0,3.84,1.73,3.84,3.85,0,.09,0,.18,0,.27l-.03.41c0,.1.03.2.11.28.07.07.18.11.28.1l.41-.04c.11-.01.22-.02.33-.02,1.63,0,2.96,1.25,2.96,2.79s-1.32,2.78-2.95,2.79Z"/>
  </g>
</svg>