<?xml version="1.0" encoding="UTF-8"?>
<svg id="Layer_1" data-name="Layer 1" xmlns="http://www.w3.org/2000/svg" viewBox="0 0 100 100">
  <defs>
    <style>
      .cls-1 {
        fill: #fff;
        stroke: #4c4c4c;
        stroke-miterlimit: 10;
      }

      .cls-2 {
        fill: #021584;
        stroke-width: 0px;
      }
    </style>
  </defs>
  <circle class="cls-1" cx="49.98" cy="50.97" r="46.84"/>
  <g>
    <g>
      <path class="cls-2" d="m70.79,79.42c0-.27.17-6.68-3.87-10.38-.4-.36-1-.39-1.43-.06-.18.13-4.43,3.28-8.44.01-.42-.34-1.02-.33-1.43.02-.06.05-.58.52-1.22,1.38-.62-.95-1.36-1.86-2.25-2.68-.4-.36-1-.39-1.43-.06-.27.2-6.63,4.93-12.67,0-.42-.34-1.02-.33-1.43.02-.23.2-5.64,5.01-5.77,14.47,0,.3.11.58.32.8s.49.33.79.33h24.46c.6,0,1.09-.48,1.11-1.08,0-.09.02-.73-.04-1.7h12.2c.6,0,1.09-.48,1.11-1.08Zm-37.68,1.63c.39-5.93,3.11-9.65,4.35-11.06,5.78,4.03,11.67,1.23,13.79-.04,3.28,3.52,3.91,8.84,4.03,11.1h-22.17Zm24.12-2.78c-.26-1.68-.75-3.71-1.65-5.69.32-.53.64-.95.9-1.26,3.57,2.32,7.38,1.24,9.53-.02,1.9,2.21,2.39,5.35,2.51,6.98h-11.29Z"/>
      <path class="cls-2" d="m59.27,40.11h-8.67v2.73c0,1.36,1.11,2.47,2.47,2.47h7.71l2.19,2.52c.16.19.39.29.63.29.11,0,.22-.02.32-.07.33-.14.54-.47.51-.83l-.15-1.91h3.96c1.36,0,2.47-1.11,2.47-2.47v-9.78c0-1.36-1.11-2.47-2.47-2.47h-5.4v5.94c0,1.97-1.61,3.58-3.58,3.58Zm3.78-3.53v-4.32h5.2c.44,0,.81.36.81.81v9.78c0,.45-.36.81-.81.81h-4.86c-.23,0-.45.1-.61.27-.16.17-.24.4-.22.63l.02.29-.78-.9c-.16-.18-.39-.29-.63-.29h-8.09c-.44,0-.81-.36-.81-.81v-2.6h7.12c2.02,0,3.66-1.64,3.66-3.66Z"/>
      <path class="cls-2" d="m29.17,36.53c0,1.97,1.61,3.58,3.58,3.58h9.62l-.27,3.45c-.03.41.2.8.59.96.12.05.25.07.37.07.27,0,.54-.12.72-.33l3.61-4.15h11.88c1.97,0,3.58-1.61,3.58-3.58v-14.28c0-1.97-1.61-3.58-3.58-3.58h-26.52c-1.97,0-3.58,1.61-3.58,3.58v14.28Zm1.92-14.28c0-.92.74-1.66,1.66-1.66h26.52c.91,0,1.66.74,1.66,1.66v14.28c0,.91-.74,1.66-1.66,1.66h-12.31c-.28,0-.54.12-.73.33l-1.99,2.29.12-1.58c.02-.27-.07-.53-.25-.73-.18-.2-.44-.31-.71-.31h-10.66c-.91,0-1.66-.74-1.66-1.66v-14.28Z"/>
      <path class="cls-2" d="m61.13,68.96h0c2.04,0,3.96-.8,5.41-2.24,1.45-1.45,2.24-3.37,2.24-5.41,0-4.22-3.43-7.65-7.65-7.65-2.04,0-3.96.8-5.41,2.24-.44.44-.81.92-1.12,1.44.03-.34.05-.69.05-1.04,0-5.77-4.7-10.46-10.47-10.46-2.79,0-5.42,1.09-7.4,3.07-1.98,1.98-3.07,4.61-3.07,7.4,0,5.77,4.7,10.46,10.47,10.46h0c2.79,0,5.42-1.09,7.4-3.07.78-.78,1.42-1.67,1.91-2.62,0,.08-.01.15-.01.23,0,4.22,3.43,7.64,7.65,7.64Zm-3.84-11.48c1.03-1.03,2.39-1.59,3.84-1.59,2.99,0,5.43,2.43,5.43,5.42,0,1.45-.56,2.81-1.59,3.84-1.02,1.03-2.39,1.59-3.83,1.59h0c-2.99,0-5.43-2.43-5.43-5.42,0-1.45.56-2.81,1.59-3.84Zm-7.28,4.65c-1.56,1.56-3.62,2.42-5.82,2.42h0c-4.54,0-8.24-3.7-8.24-8.24,0-2.2.86-4.27,2.42-5.83,1.56-1.56,3.63-2.42,5.83-2.42,4.54,0,8.24,3.7,8.24,8.24,0,2.2-.86,4.27-2.42,5.83Z"/>
    </g>
    <path class="cls-2" d="m55.88,23.1h-19.75c-.87,0-1.57.71-1.57,1.57s.71,1.57,1.57,1.57h19.75c.87,0,1.57-.71,1.57-1.57s-.71-1.57-1.57-1.57Zm0,2.14h-19.75c-.31,0-.57-.26-.57-.57s.26-.57.57-.57h19.75c.31,0,.57.26.57.57s-.26.57-.57.57Z"/>
    <path class="cls-2" d="m55.88,27.71h-19.75c-.87,0-1.57.71-1.57,1.57s.71,1.57,1.57,1.57h19.75c.87,0,1.57-.71,1.57-1.57s-.71-1.57-1.57-1.57Zm0,2.14h-19.75c-.31,0-.57-.26-.57-.57s.26-.57.57-.57h19.75c.31,0,.57.26.57.57s-.26.57-.57.57Z"/>
    <path class="cls-2" d="m55.88,32.17h-19.75c-.87,0-1.57.71-1.57,1.57s.71,1.57,1.57,1.57h19.75c.87,0,1.57-.71,1.57-1.57s-.71-1.57-1.57-1.57Zm0,2.14h-19.75c-.31,0-.57-.26-.57-.57s.26-.57.57-.57h19.75c.31,0,.57.26.57.57s-.26.57-.57.57Z"/>
  </g>
</svg>